    <svg id="wave" style="transform:rotate(0deg); transition: 0.3s" viewBox="0 0 1440 370" version="1.1"
    xmlns="http://www.w3.org/2000/svg">
    <defs>
        <linearGradient id="sw-gradient-0" x1="0" x2="0" y1="1" y2="0">
        <stop stop-color="rgba(237, 62, 243, 1)" offset="0%"></stop>
        <stop stop-color="rgba(69, 12, 120, 1)" offset="100%"></stop>
        </linearGradient>
    </defs>
    <path style="transform:translate(0, 0px); opacity:1" fill="url(#sw-gradient-0)"
        d="M0,222L60,228.2C120,234,240,247,360,259C480,271,600,284,720,277.5C840,271,960,247,1080,240.5C1200,234,1320,247,1440,215.8C1560,185,1680,111,1800,74C1920,37,2040,37,2160,61.7C2280,86,2400,136,2520,135.7C2640,136,2760,86,2880,92.5C3000,99,3120,160,3240,209.7C3360,259,3480,296,3600,277.5C3720,259,3840,185,3960,154.2C4080,123,4200,136,4320,135.7C4440,136,4560,123,4680,141.8C4800,160,4920,210,5040,234.3C5160,259,5280,259,5400,259C5520,259,5640,259,5760,240.5C5880,222,6000,185,6120,141.8C6240,99,6360,49,6480,80.2C6600,111,6720,222,6840,271.3C6960,321,7080,308,7200,265.2C7320,222,7440,148,7560,148C7680,148,7800,222,7920,234.3C8040,247,8160,197,8280,203.5C8400,210,8520,271,8580,302.2L8640,333L8640,370L8580,370C8520,370,8400,370,8280,370C8160,370,8040,370,7920,370C7800,370,7680,370,7560,370C7440,370,7320,370,7200,370C7080,370,6960,370,6840,370C6720,370,6600,370,6480,370C6360,370,6240,370,6120,370C6000,370,5880,370,5760,370C5640,370,5520,370,5400,370C5280,370,5160,370,5040,370C4920,370,4800,370,4680,370C4560,370,4440,370,4320,370C4200,370,4080,370,3960,370C3840,370,3720,370,3600,370C3480,370,3360,370,3240,370C3120,370,3000,370,2880,370C2760,370,2640,370,2520,370C2400,370,2280,370,2160,370C2040,370,1920,370,1800,370C1680,370,1560,370,1440,370C1320,370,1200,370,1080,370C960,370,840,370,720,370C600,370,480,370,360,370C240,370,120,370,60,370L0,370Z">
    </path>
    <defs>
        <linearGradient id="sw-gradient-1" x1="0" x2="0" y1="1" y2="0">
        <stop stop-color="rgba(69, 12, 120, 1)" offset="0%"></stop>
        <stop stop-color="rgba(237, 62, 243, 1)" offset="100%"></stop>
        </linearGradient>
    </defs>
    <path style="transform:translate(0, 50px); opacity:0.9" fill="url(#sw-gradient-1)"
        d="M0,148L60,172.7C120,197,240,247,360,234.3C480,222,600,148,720,154.2C840,160,960,247,1080,234.3C1200,222,1320,111,1440,86.3C1560,62,1680,123,1800,148C1920,173,2040,160,2160,185C2280,210,2400,271,2520,246.7C2640,222,2760,111,2880,55.5C3000,0,3120,0,3240,24.7C3360,49,3480,99,3600,148C3720,197,3840,247,3960,234.3C4080,222,4200,148,4320,135.7C4440,123,4560,173,4680,178.8C4800,185,4920,148,5040,129.5C5160,111,5280,111,5400,92.5C5520,74,5640,37,5760,37C5880,37,6000,74,6120,123.3C6240,173,6360,234,6480,228.2C6600,222,6720,148,6840,129.5C6960,111,7080,148,7200,160.3C7320,173,7440,160,7560,160.3C7680,160,7800,173,7920,166.5C8040,160,8160,136,8280,111C8400,86,8520,62,8580,49.3L8640,37L8640,370L8580,370C8520,370,8400,370,8280,370C8160,370,8040,370,7920,370C7800,370,7680,370,7560,370C7440,370,7320,370,7200,370C7080,370,6960,370,6840,370C6720,370,6600,370,6480,370C6360,370,6240,370,6120,370C6000,370,5880,370,5760,370C5640,370,5520,370,5400,370C5280,370,5160,370,5040,370C4920,370,4800,370,4680,370C4560,370,4440,370,4320,370C4200,370,4080,370,3960,370C3840,370,3720,370,3600,370C3480,370,3360,370,3240,370C3120,370,3000,370,2880,370C2760,370,2640,370,2520,370C2400,370,2280,370,2160,370C2040,370,1920,370,1800,370C1680,370,1560,370,1440,370C1320,370,1200,370,1080,370C960,370,840,370,720,370C600,370,480,370,360,370C240,370,120,370,60,370L0,370Z">
    </path>
    <defs>
        <linearGradient id="sw-gradient-2" x1="0" x2="0" y1="1" y2="0">
        <stop stop-color="rgba(243, 106, 62, 1)" offset="0%"></stop>
        <stop stop-color="rgba(184, 0, 242, 1)" offset="100%"></stop>
        </linearGradient>
    </defs>
    <path style="transform:translate(0, 100px); opacity:0.8" fill="url(#sw-gradient-2)"
        d="M0,296L60,259C120,222,240,148,360,117.2C480,86,600,99,720,129.5C840,160,960,210,1080,234.3C1200,259,1320,259,1440,271.3C1560,284,1680,308,1800,314.5C1920,321,2040,308,2160,252.8C2280,197,2400,99,2520,98.7C2640,99,2760,197,2880,209.7C3000,222,3120,148,3240,123.3C3360,99,3480,123,3600,148C3720,173,3840,197,3960,185C4080,173,4200,123,4320,86.3C4440,49,4560,25,4680,49.3C4800,74,4920,148,5040,197.3C5160,247,5280,271,5400,283.7C5520,296,5640,296,5760,265.2C5880,234,6000,173,6120,148C6240,123,6360,136,6480,129.5C6600,123,6720,99,6840,74C6960,49,7080,25,7200,18.5C7320,12,7440,25,7560,80.2C7680,136,7800,234,7920,259C8040,284,8160,234,8280,185C8400,136,8520,86,8580,61.7L8640,37L8640,370L8580,370C8520,370,8400,370,8280,370C8160,370,8040,370,7920,370C7800,370,7680,370,7560,370C7440,370,7320,370,7200,370C7080,370,6960,370,6840,370C6720,370,6600,370,6480,370C6360,370,6240,370,6120,370C6000,370,5880,370,5760,370C5640,370,5520,370,5400,370C5280,370,5160,370,5040,370C4920,370,4800,370,4680,370C4560,370,4440,370,4320,370C4200,370,4080,370,3960,370C3840,370,3720,370,3600,370C3480,370,3360,370,3240,370C3120,370,3000,370,2880,370C2760,370,2640,370,2520,370C2400,370,2280,370,2160,370C2040,370,1920,370,1800,370C1680,370,1560,370,1440,370C1320,370,1200,370,1080,370C960,370,840,370,720,370C600,370,480,370,360,370C240,370,120,370,60,370L0,370Z">
    </path>
    <defs>
        <linearGradient id="sw-gradient-3" x1="0" x2="0" y1="1" y2="0">
        <stop stop-color="rgba(184, 0, 242, 1)" offset="0%"></stop>
        <stop stop-color="rgba(255, 179, 11, 1)" offset="100%"></stop>
        </linearGradient>
    </defs>
    <path style="transform:translate(0, 150px); opacity:0.7" fill="url(#sw-gradient-3)"
        d="M0,222L60,228.2C120,234,240,247,360,246.7C480,247,600,234,720,215.8C840,197,960,173,1080,135.7C1200,99,1320,49,1440,67.8C1560,86,1680,173,1800,172.7C1920,173,2040,86,2160,49.3C2280,12,2400,25,2520,55.5C2640,86,2760,136,2880,141.8C3000,148,3120,111,3240,104.8C3360,99,3480,123,3600,160.3C3720,197,3840,247,3960,277.5C4080,308,4200,321,4320,283.7C4440,247,4560,160,4680,148C4800,136,4920,197,5040,209.7C5160,222,5280,185,5400,141.8C5520,99,5640,49,5760,55.5C5880,62,6000,123,6120,166.5C6240,210,6360,234,6480,228.2C6600,222,6720,185,6840,148C6960,111,7080,74,7200,80.2C7320,86,7440,136,7560,166.5C7680,197,7800,210,7920,209.7C8040,210,8160,197,8280,172.7C8400,148,8520,111,8580,92.5L8640,74L8640,370L8580,370C8520,370,8400,370,8280,370C8160,370,8040,370,7920,370C7800,370,7680,370,7560,370C7440,370,7320,370,7200,370C7080,370,6960,370,6840,370C6720,370,6600,370,6480,370C6360,370,6240,370,6120,370C6000,370,5880,370,5760,370C5640,370,5520,370,5400,370C5280,370,5160,370,5040,370C4920,370,4800,370,4680,370C4560,370,4440,370,4320,370C4200,370,4080,370,3960,370C3840,370,3720,370,3600,370C3480,370,3360,370,3240,370C3120,370,3000,370,2880,370C2760,370,2640,370,2520,370C2400,370,2280,370,2160,370C2040,370,1920,370,1800,370C1680,370,1560,370,1440,370C1320,370,1200,370,1080,370C960,370,840,370,720,370C600,370,480,370,360,370C240,370,120,370,60,370L0,370Z">
    </path>
    </svg>