<?xml version="1.0" standalone="no"?>
<svg xmlns:xlink="http://www.w3.org/1999/xlink" id="wave" style="transform:rotate(0deg); transition: 0.3s" viewBox="0 0 1440 200" version="1.1" xmlns="http://www.w3.org/2000/svg"><defs><linearGradient id="sw-gradient-0" x1="0" x2="0" y1="1" y2="0"><stop stop-color="rgba(28, 28, 28, 1)" offset="0%"/><stop stop-color="rgba(28, 28, 28, 1)" offset="100%"/></linearGradient></defs><path style="transform:translate(0, 0px); opacity:1" fill="url(#sw-gradient-0)" d="M0,120L48,130C96,140,192,160,288,156.7C384,153,480,127,576,100C672,73,768,47,864,56.7C960,67,1056,113,1152,113.3C1248,113,1344,67,1440,63.3C1536,60,1632,100,1728,123.3C1824,147,1920,153,2016,160C2112,167,2208,173,2304,153.3C2400,133,2496,87,2592,80C2688,73,2784,107,2880,103.3C2976,100,3072,60,3168,56.7C3264,53,3360,87,3456,113.3C3552,140,3648,160,3744,160C3840,160,3936,140,4032,140C4128,140,4224,160,4320,163.3C4416,167,4512,153,4608,146.7C4704,140,4800,140,4896,130C4992,120,5088,100,5184,106.7C5280,113,5376,147,5472,140C5568,133,5664,87,5760,63.3C5856,40,5952,40,6048,53.3C6144,67,6240,93,6336,93.3C6432,93,6528,67,6624,53.3C6720,40,6816,40,6864,40L6912,40L6912,200L6864,200C6816,200,6720,200,6624,200C6528,200,6432,200,6336,200C6240,200,6144,200,6048,200C5952,200,5856,200,5760,200C5664,200,5568,200,5472,200C5376,200,5280,200,5184,200C5088,200,4992,200,4896,200C4800,200,4704,200,4608,200C4512,200,4416,200,4320,200C4224,200,4128,200,4032,200C3936,200,3840,200,3744,200C3648,200,3552,200,3456,200C3360,200,3264,200,3168,200C3072,200,2976,200,2880,200C2784,200,2688,200,2592,200C2496,200,2400,200,2304,200C2208,200,2112,200,2016,200C1920,200,1824,200,1728,200C1632,200,1536,200,1440,200C1344,200,1248,200,1152,200C1056,200,960,200,864,200C768,200,672,200,576,200C480,200,384,200,288,200C192,200,96,200,48,200L0,200Z"/></svg>