<svg xmlns="http://www.w3.org/2000/svg" xmlns:xlink="http://www.w3.org/1999/xlink" viewBox="0,0,256,256" width="48px" height="48px"><g fill="none" fill-rule="nonzero" stroke="none" stroke-width="none" stroke-linecap="none" stroke-linejoin="none" stroke-miterlimit="10" stroke-dasharray="" stroke-dashoffset="0" font-family="none" font-weight="none" font-size="none" text-anchor="none" style="mix-blend-mode: normal"><g transform="scale(5.33333,5.33333)"><path d="M45,45v-19.1c0,-1.8 -0.8,-3.6 -2.3,-4.7l-13.6,-10.7c-0.4,-0.3 -0.9,-0.3 -1.2,0l-13.6,10.7c-1.4,1.1 -2.3,2.9 -2.3,4.7v19.1c0,0.6 0.4,1 1,1h31c0.6,0 1,-0.4 1,-1z" fill="#7d3ec9" stroke="none" stroke-width="1" stroke-linecap="butt" stroke-linejoin="miter"></path><path d="M13.4,13.8l-3.6,2.9c-1.4,1.1 -2.3,2.9 -2.3,4.7v18.1c0,1.1 0.9,2 2,2h20" fill="none" stroke="#fbfbfb" stroke-width="3" stroke-linecap="round" stroke-linejoin="round"></path><path d="M35,41.5h3.5c1.1,0 2,-0.9 2,-2v-18.1c0,-1.8 -0.8,-3.6 -2.3,-4.7l-13.6,-10.7c-0.4,-0.3 -0.9,-0.3 -1.2,0l-4.6,3.6" fill="none" stroke="#fbfbfb" stroke-width="3" stroke-linecap="round" stroke-linejoin="round"></path><path d="M18.5,35.7v-8.2c0,-0.6 0.4,-1 1,-1h8.9c0.6,0 1,0.4 1,1v14" fill="none" stroke="#fbfbfb" stroke-width="3" stroke-linecap="round" stroke-linejoin="round"></path></g></g></svg>