<svg id="_1" data-name="1" xmlns="http://www.w3.org/2000/svg" viewBox="0 0 564.49 427.75"><defs><style>.cls-1{fill:#fff;}</style></defs><g id="_9" data-name="9"><polygon class="cls-1" points="403.34 238.81 407.6 253.47 407.6 253.46 425.3 314.34 444.9 393.46 448.79 375 449.3 372.59 449.3 372.57 449.3 372.58 453.09 354.56 445.6 352.99 444.29 359.18 432.69 312.35 411.27 238.66 462.63 31.03 455.2 29.2 407 224 393.09 176.13 385.74 178.27 403.34 238.81 403.34 238.81"/><polygon class="cls-1" points="34.42 103.79 27.01 105.69 83.86 328.24 91.28 326.34 43.08 137.67 34.42 103.79"/><polygon class="cls-1" points="288.58 163.27 284.55 176.87 290.11 196.07 297.46 193.94 292.08 175.36 288.58 163.27"/><polygon class="cls-1" points="130.56 393.05 130.93 391.61 127.97 380.01 130.56 393.05"/><polygon class="cls-1" points="168.64 253.14 178.5 219.63 178.5 219.63 171.16 217.47 164.97 238.48 168.63 253.13 168.64 253.14"/><polygon class="cls-1" points="194.13 217.47 175.52 280.65 179.19 295.3 179.19 295.3 183.19 311.28 199.47 393.05 203.64 376.68 203.64 376.68 211.88 344.31 211.89 344.28 211.88 344.33 219.47 314.5 247.41 219.63 240.07 217.47 212.09 312.48 200.39 358.44 193.77 325.23 196.5 314.5 224.44 219.63 217.1 217.47 190.34 308.33 185.74 289.96 180.36 291.31 201.47 219.63 194.13 217.47"/><polygon class="cls-1" points="32.83 7.66 38.3 7.66 46.19 7.66 50.87 7.66 55.8 7.66 61.27 7.66 69.16 7.66 73.84 7.66 78.77 7.66 84.24 7.66 92.13 7.66 107.21 7.66 153.23 191.55 160.65 189.69 113.19 0 90.22 0 68.91 0 67.25 0 45.94 0 44.28 0 22.97 0 0 0 1.42 5.55 4.93 4.65 4.93 7.66 9.86 7.66 27.9 7.66 32.83 7.66"/><polygon class="cls-1" points="303.17 134.35 304.99 134.88 311.74 112.15 336.05 196.07 343.4 193.94 315.77 98.55 316.45 96.22 323.18 69.33 330.13 96.36 359.02 196.07 366.37 193.94 337.51 94.34 331.08 69.31 331.07 69.27 331.07 69.28 326.84 52.79 323.07 38.16 311.75 83.47 309.06 94.22 297.65 132.71 297.65 132.71 296.17 137.71 313.08 196.07 320.43 193.94 303.17 134.35"/><polygon class="cls-1" points="430.44 254.01 485.6 31.03 478.17 29.2 423 252.17 430.44 254.01"/><polygon class="cls-1" points="49.98 105.69 106.83 328.24 114.26 326.34 57.39 103.79 49.98 105.69"/><polygon class="cls-1" points="153.54 393.05 153.9 391.61 150.94 380.01 153.54 393.05"/><polygon class="cls-1" points="80.36 103.79 72.94 105.69 129.8 328.24 137.22 326.34 80.36 103.79"/><polygon class="cls-1" points="453.41 254.01 508.57 31.03 501.14 29.2 445.97 252.17 453.41 254.01"/><polygon class="cls-1" points="176.5 393.05 176.87 391.61 173.91 380.01 176.5 393.05"/><polygon class="cls-1" points="460.1 420.1 445.03 420.1 437.12 420.1 431.89 420.1 395.14 293.21 387.78 295.35 423.93 420.1 422.06 420.1 414.15 420.1 408.93 420.1 372.17 293.21 364.81 295.35 400.96 420.1 399.09 420.1 391.19 420.1 385.96 420.1 375.75 384.86 373.53 377.21 367.32 355.77 349.2 293.21 341.84 295.35 377.99 420.1 362.99 420.1 326.23 293.21 326.22 293.21 318.87 295.35 357.24 427.75 380.2 427.75 397.13 427.75 403.17 427.75 420.1 427.75 426.14 427.75 443.07 427.75 466.04 427.75 481.83 366.1 474.41 364.2 460.1 420.1"/><polygon class="cls-1" points="557.07 41.56 500.07 264.07 507.48 265.97 564.49 43.46 557.07 41.56"/><polygon class="cls-1" points="103.33 103.79 95.91 105.69 152.78 328.24 160.19 326.34 103.33 103.79"/><polygon class="cls-1" points="476.37 254.01 531.54 31.03 524.11 29.2 468.94 252.17 476.37 254.01"/><polygon class="cls-1" points="300.45 39.51 300.45 39.51 309.84 7.66 313.15 7.66 321.13 7.66 336.13 7.66 356.88 79.02 364.23 76.88 341.88 0 318.91 0 304.11 0 295.94 0 281.14 0 272.96 0 258.17 0 235.2 0 200.36 118.31 207.7 120.48 207.7 120.48 240.93 7.66 255.91 7.66 223.33 118.31 230.67 120.48 250.01 54.8 250.01 54.81 250.01 54.8 250.6 52.81 252.3 47.03 263.9 7.66 267.22 7.66 275.19 7.66 278.88 7.66 246.29 118.31 253.64 120.48 276.51 42.8 277.49 39.51 277.49 39.51 286.87 7.66 290.18 7.66 298.16 7.66 301.85 7.66 269.27 118.31 276.61 120.48 299.45 42.93 300.45 39.51"/><polygon class="cls-1" points="268.24 231.8 212.37 420.1 197.38 420.1 189.4 420.1 184.8 420.1 184.15 420.1 174.41 420.1 166.43 420.1 161.83 420.1 161.18 420.1 151.44 420.1 143.46 420.1 138.86 420.1 138.21 420.1 115.89 420.1 115.89 427.75 138.86 427.75 149.17 427.75 161.83 427.75 172.14 427.75 184.8 427.75 195.11 427.75 218.08 427.75 275.58 233.97 268.25 231.8 268.24 231.8"/></g></svg>