<svg xmlns="http://www.w3.org/2000/svg" xmlns:xlink="http://www.w3.org/1999/xlink" viewBox="0,0,256,256" width="48px" height="48px"><g fill="none" fill-rule="nonzero" stroke="none" stroke-width="none" stroke-linecap="none" stroke-linejoin="none" stroke-miterlimit="10" stroke-dasharray="" stroke-dashoffset="0" font-family="none" font-weight="none" font-size="none" text-anchor="none" style="mix-blend-mode: normal"><g transform="scale(5.33333,5.33333)"><path d="M43,11h-29c-1.1,0 -2,0.9 -2,2v3c0,1.1 0.9,2 2,2h29c1.1,0 2,-0.9 2,-2v-3c0,-1.1 -0.9,-2 -2,-2z" fill="#f472db" stroke="none" stroke-width="1" stroke-linecap="butt" stroke-linejoin="miter"></path><path d="M43,24h-29c-1.1,0 -2,0.9 -2,2v3c0,1.1 0.9,2 2,2h29c1.1,0 2,-0.9 2,-2v-3c0,-1.1 -0.9,-2 -2,-2z" fill="#f472db" stroke="none" stroke-width="1" stroke-linecap="butt" stroke-linejoin="miter"></path><path d="M43,37h-29c-1.1,0 -2,0.9 -2,2v3c0,1.1 0.9,2 2,2h29c1.1,0 2,-0.9 2,-2v-3c0,-1.1 -0.9,-2 -2,-2z" fill="#f472db" stroke="none" stroke-width="1" stroke-linecap="butt" stroke-linejoin="miter"></path><path d="M36.1,7.5h2.4c1.1,0 2,0.9 2,2v3c0,1.1 -0.9,2 -2,2h-20.5" fill="none" stroke="#610496" stroke-width="3" stroke-linecap="round" stroke-linejoin="round"></path><path d="M13,14.5h-3.5c-1.1,0 -2,-0.9 -2,-2v-3c0,-1.1 0.9,-2 2,-2h21.3" fill="none" stroke="#610496" stroke-width="3" stroke-linecap="round" stroke-linejoin="round"></path><path d="M13.3,27.5h-3.8c-1.1,0 -2,-0.9 -2,-2v-3c0,-1.1 0.9,-2 2,-2h20" fill="none" stroke="#610496" stroke-width="3" stroke-linecap="round" stroke-linejoin="round"></path><path d="M35,20.5h3.5c1.1,0 2,0.9 2,2v3c0,1.1 -0.9,2 -2,2h-20" fill="none" stroke="#610496" stroke-width="3" stroke-linecap="round" stroke-linejoin="round"></path><path d="M13.5,40.5h-4c-1.1,0 -2,-0.9 -2,-2v-3c0,-1.1 0.9,-2 2,-2h19.6" fill="none" stroke="#610496" stroke-width="3" stroke-linecap="round" stroke-linejoin="round"></path><path d="M34.2,33.5h4.3c1.1,0 2,0.9 2,2v3c0,1.1 -0.9,2 -2,2h-20" fill="none" stroke="#610496" stroke-width="3" stroke-linecap="round" stroke-linejoin="round"></path></g></g></svg>