<?xml version="1.0" standalone="no"?>
<svg xmlns:xlink="http://www.w3.org/1999/xlink" id="wave" style="transform:rotate(180deg); transition: 0.3s" viewBox="0 0 1440 200" version="1.1" xmlns="http://www.w3.org/2000/svg"><defs><linearGradient id="sw-gradient-0" x1="0" x2="0" y1="1" y2="0"><stop stop-color="rgba(28, 28, 28, 1)" offset="0%"/><stop stop-color="rgba(28, 28, 28, 1)" offset="100%"/></linearGradient></defs><path style="transform:translate(0, 0px); opacity:1" fill="url(#sw-gradient-0)" d="M0,60L48,76.7C96,93,192,127,288,133.3C384,140,480,120,576,103.3C672,87,768,73,864,83.3C960,93,1056,127,1152,130C1248,133,1344,107,1440,80C1536,53,1632,27,1728,30C1824,33,1920,67,2016,76.7C2112,87,2208,73,2304,70C2400,67,2496,73,2592,93.3C2688,113,2784,147,2880,160C2976,173,3072,167,3168,150C3264,133,3360,107,3456,103.3C3552,100,3648,120,3744,126.7C3840,133,3936,127,4032,106.7C4128,87,4224,53,4320,53.3C4416,53,4512,87,4608,110C4704,133,4800,147,4896,133.3C4992,120,5088,80,5184,56.7C5280,33,5376,27,5472,30C5568,33,5664,47,5760,56.7C5856,67,5952,73,6048,86.7C6144,100,6240,120,6336,113.3C6432,107,6528,73,6624,66.7C6720,60,6816,80,6864,90L6912,100L6912,200L6864,200C6816,200,6720,200,6624,200C6528,200,6432,200,6336,200C6240,200,6144,200,6048,200C5952,200,5856,200,5760,200C5664,200,5568,200,5472,200C5376,200,5280,200,5184,200C5088,200,4992,200,4896,200C4800,200,4704,200,4608,200C4512,200,4416,200,4320,200C4224,200,4128,200,4032,200C3936,200,3840,200,3744,200C3648,200,3552,200,3456,200C3360,200,3264,200,3168,200C3072,200,2976,200,2880,200C2784,200,2688,200,2592,200C2496,200,2400,200,2304,200C2208,200,2112,200,2016,200C1920,200,1824,200,1728,200C1632,200,1536,200,1440,200C1344,200,1248,200,1152,200C1056,200,960,200,864,200C768,200,672,200,576,200C480,200,384,200,288,200C192,200,96,200,48,200L0,200Z"/></svg>